HIERARCHY
ROOT Hips
{
  OFFSET 3.13124 94.3669 -3.18751
  CHANNELS  6 Xposition Yposition Zposition Zrotation Xrotation Yrotation
  JOINT LeftUpLeg
  {
    OFFSET 8.64259 1.95398 -2.38835
    CHANNELS 3 Zrotation Xrotation Yrotation
    JOINT LeftLeg
    {
      OFFSET 43.7702 0 0
      CHANNELS 3 Zrotation Xrotation Yrotation
      JOINT LeftFoot
      {
        OFFSET 40.6238 0 0
        CHANNELS 3 Zrotation Xrotation Yrotation
        JOINT LeftToeBase
        {
          OFFSET 12.7242 0 0
          CHANNELS 3 Zrotation Xrotation Yrotation
          End Site
          {
            OFFSET 0 0 0
          }
        }
      }
    }
  }
  JOINT RightUpLeg
  {
    OFFSET -8.2249 1.95398 -2.59336
    CHANNELS 3 Zrotation Xrotation Yrotation
    JOINT RightLeg
    {
      OFFSET 43.5653 0 0
      CHANNELS 3 Zrotation Xrotation Yrotation
      JOINT RightFoot
      {
        OFFSET 40.6238 0 0
        CHANNELS 3 Zrotation Xrotation Yrotation
        JOINT RightToeBase
        {
          OFFSET 12.7242 0 0
          CHANNELS 3 Zrotation Xrotation Yrotation
          End Site
          {
            OFFSET 0 0 0
          }
        }
      }
    }
  }
  JOINT Spine
  {
    OFFSET 0.165834 0.87714 6.61349
    CHANNELS 3 Zrotation Xrotation Yrotation
    JOINT Spine1
    {
      OFFSET 7.38962 1.71661e-005 0
      CHANNELS 3 Zrotation Xrotation Yrotation
      JOINT Spine2
      {
        OFFSET 11.9445 1.14441e-005 0
        CHANNELS 3 Zrotation Xrotation Yrotation
        JOINT Spine3
        {
          OFFSET 14.7254 4.19617e-005 0
          CHANNELS 3 Zrotation Xrotation Yrotation
          JOINT Spine4
          {
            OFFSET 10.9679 0 0
            CHANNELS 3 Zrotation Xrotation Yrotation
            JOINT RightShoulder
            {
              OFFSET 2.46616 -1.6653 3.69651
              CHANNELS 3 Zrotation Xrotation Yrotation
              JOINT RightArm
              {
                OFFSET 13.0012 0 0
                CHANNELS 3 Zrotation Xrotation Yrotation
                JOINT RightForeArm
                {
                  OFFSET 28.7848 1.52588e-005 0
                  CHANNELS 3 Zrotation Xrotation Yrotation
                  JOINT RightHand
                  {
                    OFFSET 26.5688 1.52588e-005 0
                    CHANNELS 3 Zrotation Xrotation Yrotation
                    End Site
                    {
                      OFFSET 0 0 0
                    }
                  }
                }
              }
            }
            JOINT LeftShoulder
            {
              OFFSET 2.38034 -1.29275 -3.75231
              CHANNELS 3 Zrotation Xrotation Yrotation
              JOINT LeftArm
              {
                OFFSET 16.3182 6.10352e-005 0
                CHANNELS 3 Zrotation Xrotation Yrotation
                JOINT LeftForeArm
                {
                  OFFSET 27.0901 0 0
                  CHANNELS 3 Zrotation Xrotation Yrotation
                  JOINT LeftHand
                  {
                    OFFSET 24.5451 1.52588e-005 0
                    CHANNELS 3 Zrotation Xrotation Yrotation
                    End Site
                    {
                      OFFSET 0 0 0
                    }
                  }
                }
              }
            }
            JOINT Neck
            {
              OFFSET 5.0226 -0.0266342 0
              CHANNELS 3 Zrotation Xrotation Yrotation
              JOINT Head
              {
                OFFSET 6.69363 2.86102e-005 0
                CHANNELS 3 Zrotation Xrotation Yrotation
                End Site
                {
                  OFFSET 0 0 0
                }
              }
            }
          }
        }
      }
    }
  }
}
MOTION
Frames:	7
Frame Time:	0.0333333
-1.62044 96.9507 -26.9433 75.2913 -89.9965 75.4104 -170.397 3.14404 91.8861 -9.56714 9.22608 4.09908 63.6998 0.263568 0.0878757 28.7808 5.53551e-006 4.34073e-006 -178.973 2.06973 92.2192 -7.87454 1.24845 0.0613321 62.8734 -1.1308 -0.567803 28.7808 1.43229e-005 2.78011e-005 0.00953361 6.34035 -90.1198 14.1935 2.04688e-006 3.91762e-006 2.5225 8.57628e-007 -0.0108251 -20.0126 -3.22751e-006 -1.49012e-006 3.18055e-015 -2.71776e-018 -1.94126e-018 100.904 -19.0501 -85.2563 -1.71832 42.7586 -23.8331 1.35423 0.515835 -3.92895 -5.37983 -0.320032 -0.0162399 -79.1006 -22.1349 94.0962 12.4104 -38.3249 -13.8783 -0.426981 38.7039 -6.89102 0.255064 0.0485059 1.68686 1.77193 -0.00104043 0.00303611 -7.42441 -0.00237909 -0.00746996 
-1.63683 96.9534 -26.9974 -8.13911 -89.9854 -8.01072 -170.395 3.17929 91.899 -9.53062 9.22602 4.08948 63.6428 0.320523 0.119631 28.7808 5.53551e-006 4.34073e-006 -178.952 1.94875 92.2375 -7.51594 1.26062 0.0613324 62.6652 -1.14633 -0.573229 28.7808 1.43229e-005 2.78011e-005 0.0103305 6.34018 -90.1284 14.1935 2.04688e-006 3.91762e-006 2.5225 8.57628e-007 -0.0108251 -20.0126 -3.22751e-006 -1.49012e-006 3.18055e-015 -2.32951e-018 -3.68839e-018 100.893 -18.9522 -85.2038 -1.56072 42.7367 -23.9987 1.3393 0.515835 -3.9297 -5.37983 -0.320032 -0.0162399 -79.1507 -22.211 94.0749 12.3676 -38.285 -13.9729 -0.488378 38.5427 -6.92454 0.332785 0.0551522 1.79433 2.059 -0.0170841 0.046269 -7.63844 -0.0388954 -0.118993 
-1.65466 96.9544 -27.0556 -53.3083 -89.984 -53.1903 -170.403 3.22202 91.8926 -9.55253 9.20708 4.09374 63.5948 0.275709 0.0921485 28.7808 5.53551e-006 4.34073e-006 -178.955 2.03082 92.2346 -7.61414 1.24111 0.061332 62.6732 -1.11125 -0.553111 28.7808 1.43229e-005 2.78011e-005 0.0099957 6.3402 -90.1234 14.1935 2.95579e-005 2.12043e-005 2.52256 2.86274e-005 -0.0108251 -20.0126 1.82947e-005 2.44761e-005 5.06661e-005 2.08033e-005 2.50473e-005 100.861 -18.8693 -85.1983 -1.41726 42.7104 -24.1215 1.306 0.515828 -3.9415 -5.37983 -0.320032 -0.0162399 -79.2279 -22.2884 93.9925 12.3098 -38.2306 -14.0217 -0.51438 38.475 -6.99769 0.308956 0.0625393 2.16034 2.27618 -0.0210253 0.0105838 -7.82153 -0.0482358 -0.10724 
-1.66575 96.9561 -27.1261 -99.5722 -89.9414 -99.5263 -170.437 3.35021 91.8316 -9.76895 8.97485 4.04478 63.5284 -0.00190239 -0.0735384 28.7808 5.53551e-006 4.34073e-006 -178.994 2.28253 92.1704 -8.08247 1.14052 0.0613297 62.8627 -1.13708 -0.572636 28.7808 1.43229e-005 2.78011e-005 0.00636523 6.34076 -90.081 14.1924 -0.000524826 -0.000352359 2.52148 -0.000547757 -0.0108251 -20.0137 -0.000391622 -0.000481335 -0.00102361 -0.000398811 -0.000493383 100.805 -18.8539 -85.2956 -1.42522 42.6932 -24.1612 1.35601 0.515822 -3.9505 -5.37983 -0.320032 -0.0162399 -79.2962 -22.403 93.8822 12.3324 -38.1695 -13.9587 -0.542661 38.782 -6.9152 0.47123 0.0664019 1.78529 2.42402 -0.0100281 0.011527 -7.99182 -0.0281229 -0.0616338 
-1.68366 96.9802 -27.1868 -164.592 -89.9499 -164.508 -170.445 3.20585 91.8691 -9.47376 9.14408 4.0868 63.4413 0.223931 0.0597358 28.7808 5.53551e-006 4.34073e-006 -178.899 1.24671 92.2172 -5.95669 1.33836 0.0613343 61.9084 -0.976063 -0.459905 28.7808 1.43229e-005 2.78011e-005 0.00526379 6.35445 -90.1499 14.1651 -0.0157917 -0.00998148 2.49414 -0.0162082 -0.0108251 -20.041 -0.0120683 -0.0142669 -0.0283588 -0.0120595 -0.0142616 100.888 -18.7173 -85.3056 -1.27518 42.6319 -24.2582 1.35973 0.515817 -3.95887 -5.37983 -0.320032 -0.0162399 -79.2786 -22.5525 93.7368 12.3013 -38.1537 -13.9273 -0.543017 38.9036 -6.88264 0.512845 0.0651653 1.81188 2.58804 0.00697822 0.191419 -8.03955 -0.00682137 -0.24877 
-1.71395 96.9507 -27.2516 -96.6868 -89.9737 -96.668 -170.454 3.50829 91.8131 -9.89616 8.96886 4.06466 63.4534 -0.115444 -0.143304 28.7808 5.53551e-006 4.34073e-006 -179.001 2.54894 92.1533 -8.44336 1.14827 0.0613299 62.9585 -1.13725 -0.574981 28.7808 1.43229e-005 2.78011e-005 -0.00699173 6.35309 -90.0694 14.1677 -0.0278933 -0.0121764 2.49678 -0.0283993 -0.0109449 -20.0384 -0.0229284 -0.0200494 -0.0257235 -0.0229239 -0.020046 100.843 -18.7229 -85.4261 -1.26764 42.5792 -24.2437 1.41844 0.515823 -3.94953 -5.37983 -0.320032 -0.0162399 -79.2916 -22.6799 93.7101 12.3343 -38.1573 -13.9704 -0.719959 38.8055 -6.5914 0.801886 0.0546456 0.864593 2.85484 0.0137995 0.171718 -8.33218 0.00429897 -0.274124 
-1.73882 96.9495 -27.3122 -134.809 -89.964 -134.733 -170.439 3.36181 91.872 -9.57504 9.14274 4.09133 63.4527 0.259228 0.0782996 28.7808 5.53551e-006 4.34073e-006 -178.959 2.17958 92.2283 -7.65755 1.20639 0.0613312 62.62 -1.04278 -0.51213 28.7808 1.43229e-005 2.78011e-005 -0.00695924 6.35453 -90.1311 14.1649 -0.0389312 -0.0146535 2.49398 -0.0395927 -0.0128777 -20.0412 -0.0323232 -0.0269647 -0.0285273 -0.0323206 -0.026967 100.807 -18.6984 -85.5236 -1.23218 42.5622 -24.2536 1.43954 0.515832 -3.93461 -5.37983 -0.320032 -0.0162399 -79.2875 -22.75 93.7177 12.2264 -38.115 -14.0782 -0.637777 39.0914 -6.7486 0.62703 0.0676429 1.66404 2.86468 0.00638114 0.232852 -8.30572 -0.0124666 -0.318987 
